<mxfile host="Electron" agent="Mozilla/5.0 (Windows NT 10.0; Win64; x64) AppleWebKit/537.36 (KHTML, like Gecko) draw.io/26.0.16 Chrome/132.0.6834.196 Electron/34.2.0 Safari/537.36" version="26.0.16">
  <diagram name="Page-1" id="O3Ht28bCY5Vj-Px-b6FO">
    <mxGraphModel dx="792" dy="1182" grid="1" gridSize="10" guides="1" tooltips="1" connect="1" arrows="1" fold="1" page="1" pageScale="1" pageWidth="1100" pageHeight="850" math="0" shadow="0">
      <root>
        <mxCell id="0" />
        <mxCell id="1" parent="0" />
        <mxCell id="n3ikELEIRAYo6jXZ4RV_-1" value="Adventure Application" style="ellipse;whiteSpace=wrap;html=1;aspect=fixed;" vertex="1" parent="1">
          <mxGeometry x="350" y="345" width="80" height="80" as="geometry" />
        </mxCell>
        <mxCell id="n3ikELEIRAYo6jXZ4RV_-2" value="FTP Site" style="rounded=1;whiteSpace=wrap;html=1;" vertex="1" parent="1">
          <mxGeometry x="80" y="355" width="120" height="60" as="geometry" />
        </mxCell>
        <mxCell id="n3ikELEIRAYo6jXZ4RV_-3" value="AWS S3" style="rounded=1;whiteSpace=wrap;html=1;" vertex="1" parent="1">
          <mxGeometry x="580" y="355" width="120" height="60" as="geometry" />
        </mxCell>
        <mxCell id="n3ikELEIRAYo6jXZ4RV_-4" value="" style="endArrow=classic;html=1;rounded=0;exitX=1;exitY=0.5;exitDx=0;exitDy=0;entryX=0;entryY=0.5;entryDx=0;entryDy=0;" edge="1" parent="1" source="n3ikELEIRAYo6jXZ4RV_-2" target="n3ikELEIRAYo6jXZ4RV_-1">
          <mxGeometry width="50" height="50" relative="1" as="geometry">
            <mxPoint x="380" y="630" as="sourcePoint" />
            <mxPoint x="430" y="580" as="targetPoint" />
          </mxGeometry>
        </mxCell>
        <mxCell id="n3ikELEIRAYo6jXZ4RV_-6" value="Data File (Zipped)" style="edgeLabel;html=1;align=center;verticalAlign=middle;resizable=0;points=[];" vertex="1" connectable="0" parent="n3ikELEIRAYo6jXZ4RV_-4">
          <mxGeometry x="0.1833" relative="1" as="geometry">
            <mxPoint x="-9" as="offset" />
          </mxGeometry>
        </mxCell>
        <mxCell id="n3ikELEIRAYo6jXZ4RV_-5" value="" style="endArrow=classic;html=1;rounded=0;entryX=0;entryY=0.5;entryDx=0;entryDy=0;exitX=1;exitY=0.5;exitDx=0;exitDy=0;" edge="1" parent="1" source="n3ikELEIRAYo6jXZ4RV_-1" target="n3ikELEIRAYo6jXZ4RV_-3">
          <mxGeometry width="50" height="50" relative="1" as="geometry">
            <mxPoint x="450" y="440" as="sourcePoint" />
            <mxPoint x="360" y="395" as="targetPoint" />
          </mxGeometry>
        </mxCell>
        <mxCell id="n3ikELEIRAYo6jXZ4RV_-7" value="Data File (Zipped)" style="edgeLabel;html=1;align=center;verticalAlign=middle;resizable=0;points=[];" vertex="1" connectable="0" parent="n3ikELEIRAYo6jXZ4RV_-5">
          <mxGeometry x="-0.0444" y="1" relative="1" as="geometry">
            <mxPoint as="offset" />
          </mxGeometry>
        </mxCell>
      </root>
    </mxGraphModel>
  </diagram>
</mxfile>
